<svg xmlns="http://www.w3.org/2000/svg" viewBox="0 0 30 30"><defs><style>.cls-1,.cls-2{fill:none;stroke:#000;stroke-width:2px;}.cls-1{stroke-linecap:round;stroke-linejoin:round;}.cls-2{stroke-miterlimit:10;}</style></defs><title>smileys-bad</title><g id="Layer_2" data-name="Layer 2"><g id="Smileys"><g id="smileys-bad"><line class="cls-1" x1="19.44" y1="12.06" x2="21.56" y2="9.94"/><line class="cls-1" x1="10.56" y1="12.06" x2="8.44" y2="9.94"/><path class="cls-2" d="M28.8,15c1.54,7.78-6.18,14-13.8,14S-.34,22.78,1.2,15C2.69,7.42,7.38,1,15,1S27.31,7.42,28.8,15Z"/><path class="cls-1" d="M18.5,24h-7A2.5,2.5,0,0,1,9,21.5H9A2.5,2.5,0,0,1,11.5,19h7A2.5,2.5,0,0,1,21,21.5h0A2.5,2.5,0,0,1,18.5,24Z"/></g></g></g></svg>